#!OML:ASF F:\VICON\USERDATA\INSTALL\rory3\rory3.ASF
:FULLY-SPECIFIED
:DEGREES
55
root 0.731668141096084 23.678152437960215 -3.3044195257351676 11.609871662657813 1.8461494244894856 -0.7543915405477164
lfemur -26.05472867235739 9.468209941284329 -16.517983452969954
ltibia 44.33417057713299
lfoot 13.055450770534998 -2.143775279827585
ltoes -2.1277546498968745
rfemur -28.087297392871402 -4.22299652576082 19.724301580748524
rtibia 46.298774021900655
rfoot 11.280316140264867 -2.4434009146813946
rtoes 21.348805059603393
lowerback 3.612621499502522 -0.44200418940870456 0.06746998826601946
upperback 2.50403037642333 -0.6832208715611199 2.1126958621039993
thorax -0.580054548187767 -0.38437999241509924 2.2228235932478073
lowerneck -7.92668698424112 0.9176090695161785 -3.8095233055866977
upperneck 11.195702271634959 1.340229163664436 1.590120157034287
head 3.6159107080737085 0.6889903495509394 0.9991288716515325
lclavicle 1.8756548949435829e-16 -2.3527196807460358e-15
lhumerus -19.36046317058582 -11.702666750783093 84.02340057789456
lradius 33.545646314399065
lwrist 21.719884641039712
lhand -25.38031620526861 -10.276091702940633
lfingers 7.12502
lthumb 2.2773391833822973 21.01012487100202
rclavicle 1.858714854827196e-16 -2.355333617371806e-15
rhumerus -30.67714103597006 -5.330032204606967 -77.8827203008449
rradius 36.889196741402934
rwrist 29.491662299015026
rhand -20.981809466392832 -23.072421020341466
rfingers 7.12502
rthumb 4.347066867295995 -53.435624816532574
56
root 0.7634758598166367 23.696353468652152 -2.1834755944183466 10.19652878610713 2.0631529009071286 -0.1331875471781372
lfemur -27.980359514588642 10.43058237925488 -17.82189174945529
ltibia 41.730144076408045
lfoot 12.874511676701497 -2.711700568251569
ltoes -3.3681270547359796
rfemur -28.05374362282959 -4.515012749266871 19.330118290277124
rtibia 43.012597422002614
rfoot 10.207540173501494 -1.3431622017187974
rtoes 17.527992287646967
lowerback 4.713934481453725 -0.5629270031650176 -0.14649259270669557
upperback 2.684201958108967 -0.8875800825138696 1.94718444879117
thorax -0.6357179472395407 -0.5068100699299929 2.2812352470148616
lowerneck -8.130862793511302 1.198163546001363 -3.6553764845507417
upperneck 12.048097914934914 1.834718071334655 1.4680087345725634
head 4.097261835063808 0.8787717152482394 0.9884907098019682
lclavicle 1.874418407776073e-16 -2.352976402108016e-15
lhumerus -19.008103983824913 -11.148532175621723 83.30718078722845
lradius 33.860689957884645
lwrist 21.79085021609741
lhand -25.149328270110235 -10.416280881768031
lfingers 7.12502
lthumb 2.7478181224554183 20.95551138964861
rclavicle 1.8594085785820311e-16 -2.3552242956091005e-15
rhumerus -30.23121488468214 -6.258545237745862 -79.52163502089796
rradius 35.58264445820304
rwrist 29.90372478195485
rhand -21.35310188943642 -23.18052538784913
rfingers 7.12502
rthumb 3.953855858152298 -53.46309334110791
57
root 0.8032995412951471 23.397471639797338 -1.0007191017486279 8.97470506277485 2.2032542043182857 0.12937847324101948
lfemur -28.848533352693863 10.932393895599219 -18.657658354122383
ltibia 35.98405845813443
lfoot 13.187583253994871 -3.2219610611864997
ltoes -6.405122057977664
rfemur -27.055015006533697 -4.834812905459425 18.950771340105728
rtibia 36.815021010355856
rfoot 10.08093324670529 -1.018830165653069
rtoes 14.16681262348152
lowerback 4.584363993999747 -0.6630520016227839 -0.17436765520656583
upperback 2.709892308622171 -1.0260186525802326 1.863547821493782
thorax -0.35253605383172065 -0.594503337356942 2.2372363256125207
lowerneck -8.266238339091515 1.4067317971364173 -3.521419691531137
upperneck 12.94932223656696 2.2949495031328606 1.200165699268885
head 4.645357484075877 1.0284277320915027 0.9297132709811502
lclavicle 1.8783822026716523e-16 -2.352393290181893e-15
lhumerus -18.84510531868393 -10.995046983690715 82.89058964805012
lradius 34.218948571066335
lwrist 21.618749048303265
lhand -24.770139241018754 -10.370633348329324
lfingers 7.12502
lthumb 3.4170474987673494 21.039521536771353
rclavicle 1.8616410274143838e-16 -2.354867078182085e-15
rhumerus -30.70196191602668 -6.414327441546725 -80.92256830486893
rradius 34.47057526528855
rwrist 30.194778775224922
rhand -21.5968864203834 -23.188562152809425
rfingers 7.12502
rthumb 3.643490024599893 -53.33248820602672
58
root 0.8645461973248695 22.863551438204027 0.19278827467067677 8.445746536652099 2.0476545973051143 0.3112812330648065
lfemur -29.66521094234438 11.093185943712617 -19.20274192794871
ltibia 29.20188883248787
lfoot 13.254400202350501 -4.3479780387571765
ltoes -11.346815594645951
rfemur -26.175430718380206 -4.961785268074804 18.508397268351448
rtibia 30.031446631332955
rfoot 10.085944212129897 -1.1968158797515733
rtoes 12.45627779946422
lowerback 3.220323086138941 -0.715758299699429 -0.0554451647288704
upperback 2.5180079012458014 -1.0879888074698438 1.772935585672041
thorax 0.14727070244280233 -0.6350885522397374 2.0867918769344054
lowerneck -8.385588926547726 1.5165519230853206 -3.4502226732468655
upperneck 13.743654430478033 2.6318507775619358 0.9386447879350733
head 5.131461082960428 1.1454695288997803 0.8613583507177778
lclavicle 1.8752531409429498e-16 -2.3529099850547207e-15
lhumerus -18.843946400123418 -10.70078967622369 82.77401421886995
lradius 34.751116577964
lwrist 21.871675769040397
lhand -24.393239087208432 -10.33026466082238
lfingers 7.12502
lthumb 4.164790664761702 21.157588216995617
rclavicle 1.8646211625285007e-16 -2.3543919019865735e-15
rhumerus -31.916343969644466 -6.058456258762778 -81.95667525227357
rradius 33.64765915883249
rwrist 30.46922704076872
rhand -21.910658737298405 -23.270092634122182
rfingers 7.12502
rthumb 3.262255359934066 -53.25732718357486
59
root 0.9312185773700139 22.05284816059893 1.3774852844807053 7.297546170381112 1.8285028967628487 0.805634472514843
lfemur -28.927215493879707 11.061613323533935 -19.613918140766533
ltibia 24.203479819369473
lfoot 11.820098451781147 -4.73596289447087
ltoes -16.852716709690675
rfemur -24.171463635972504 -4.850839692254224 17.66027158520447
rtibia 24.890520057998344
rfoot 9.32389316406932 -1.2615937417336551
rtoes 11.707182324402869
lowerback 1.9136495262194346 -0.7239263934459432 0.0005759421704447654
upperback 2.2599928217646585 -1.1085685461563166 1.6287457080391494
thorax 0.3162056695064952 -0.6558017478818725 1.9894696465066537
lowerneck -8.61312368852065 1.5296349142733725 -3.5270525200116962
upperneck 14.541425075635662 2.7382130532296713 0.9223037827469356
head 5.593060001504257 1.1674425254277376 0.8697002244465302
lclavicle 1.8749061678712511e-16 -2.3530054610527826e-15
lhumerus -19.121470408017764 -10.266827649762531 82.92498659335057
lradius 35.18412199812454
lwrist 22.50439050999614
lhand -24.02159451461719 -10.256095403707988
lfingers 7.12502
lthumb 4.730305745224218 21.31616763921167
rclavicle 1.8725495003320292e-16 -2.3531339219234564e-15
rhumerus -33.45533393305561 -5.370469983234612 -82.39866439562604
rradius 33.0305902634341
rwrist 30.69623178353421
rhand -22.064603009051382 -23.349975421157026
rfingers 7.12502
rthumb 3.013825598145615 -53.25174258159248
